# Blender 4.5.1 LTS
# www.blender.org
mtllib character-vampire-boss.mtl
o character-vampire
v 0.055224 0.000000 -0.227388
v 0.055224 0.103452 -0.218117
v 0.055224 0.000000 0.300000
v 0.055224 0.206903 0.167388
v 0.055224 0.206903 0.300000
v 0.390000 0.206903 0.167388
v 0.390000 0.206903 0.300000
v 0.390000 0.000000 0.300000
v 0.390000 0.000000 -0.227388
v 0.390000 0.103452 -0.218117
v 0.390000 0.386502 0.197388
v 0.055224 0.386502 0.197388
v 0.390000 0.669552 0.167388
v 0.055224 0.669552 0.167388
v 0.390000 0.669552 -0.167388
v 0.055224 0.669552 -0.167388
v 0.055224 0.103452 -0.218118
v 0.055224 0.386502 -0.162753
v 0.055224 0.206903 0.167388
v 0.390000 0.386502 -0.162753
v 0.390000 0.206903 0.167388
v 0.390000 0.103452 -0.218118
v -0.055224 0.000000 -0.227388
v -0.055224 0.000000 0.300000
v -0.055224 0.103452 -0.218117
v -0.055224 0.206903 0.167388
v -0.055224 0.206903 0.300000
v -0.390000 0.000000 -0.227388
v -0.390000 0.103452 -0.218117
v -0.390000 0.000000 0.300000
v -0.390000 0.206903 0.167388
v -0.390000 0.206903 0.300000
v -0.055224 0.386502 0.197388
v -0.390000 0.386502 0.197388
v -0.055224 0.669552 0.167388
v -0.390000 0.669552 0.167388
v -0.055224 0.669552 -0.167388
v -0.390000 0.669552 -0.167388
v -0.390000 0.103452 -0.218118
v -0.390000 0.386502 -0.162753
v -0.390000 0.206903 0.167388
v -0.055224 0.386502 -0.162753
v -0.055224 0.206903 0.167388
v -0.055224 0.103452 -0.218118
v -0.390000 0.852606 -0.300000
v -0.390000 1.449552 -0.300000
v -0.390000 0.852606 0.300000
v -0.390000 1.449552 0.300000
v 0.390000 1.449552 -0.300000
v 0.390000 1.449552 0.300000
v 0.097500 1.449552 0.300000
v -0.097500 1.449552 0.300000
v 0.390000 0.852606 -0.300000
v 0.390000 0.852606 0.300000
v 0.097500 1.031079 0.300000
v -0.097500 1.031079 0.300000
v -0.390000 0.669552 -0.300000
v -0.390000 0.669552 0.300000
v 0.390000 0.669552 -0.300000
v 0.390000 0.669552 0.300000
v 0.390000 0.852606 0.300000
v -0.390000 0.852606 0.300000
v 0.097500 1.031079 0.300000
v -0.097500 1.031079 0.300000
v 0.097500 1.449552 0.300000
v -0.097500 1.449552 0.300000
v 0.699552 1.194552 0.174888
v 0.300000 1.194552 0.174888
v 0.699552 1.529328 0.174888
v 0.300000 1.361940 0.174888
v 0.467388 1.529328 0.174888
v 0.467388 1.529328 -0.159888
v 0.300000 1.361940 -0.159888
v 1.004021 1.529328 -0.103511
v 0.917374 1.529328 0.231265
v 0.786198 1.529328 -0.159888
v 0.786198 1.194552 -0.159888
v 0.300000 1.194552 -0.159888
v 1.004021 1.194552 -0.103511
v 0.917374 1.194552 0.231265
v 1.088326 1.574523 -0.129914
v 0.978285 1.574523 0.295251
v 0.978285 1.149357 0.295252
v 1.088326 1.149357 -0.129914
v 1.248013 1.351850 -0.004641
v 1.178696 1.351850 0.263179
v 1.108607 1.495850 -0.040722
v 1.039290 1.495850 0.227098
v 1.248013 1.228030 -0.004641
v 1.178696 1.228030 0.263179
v 0.684594 1.228030 -0.150465
v 0.684594 1.495850 -0.150465
v 0.615277 1.495850 0.117356
v 0.615277 1.228030 0.117356
v -0.699552 1.194552 0.174888
v -0.699552 1.529328 0.174888
v -0.300000 1.194552 0.174888
v -0.300000 1.361940 0.174888
v -0.467388 1.529328 0.174888
v -0.300000 1.361940 -0.159888
v -0.467388 1.529328 -0.159888
v -0.917374 1.194552 0.231265
v -0.917374 1.529328 0.231265
v -0.300000 1.194552 -0.159888
v -0.786198 1.194552 -0.159888
v -1.004021 1.194552 -0.103511
v -1.088326 1.149357 -0.129914
v -1.088326 1.574523 -0.129914
v -1.004021 1.529328 -0.103511
v -0.786198 1.529328 -0.159888
v -0.978285 1.149357 0.295252
v -0.978285 1.574523 0.295251
v -1.248013 1.228030 -0.004641
v -0.684594 1.228030 -0.150465
v -1.248013 1.351850 -0.004641
v -0.684594 1.495850 -0.150465
v -1.108607 1.495850 -0.040722
v -1.178696 1.228030 0.263179
v -1.178696 1.351850 0.263179
v -0.615277 1.228030 0.117356
v -0.615277 1.495850 0.117356
v -1.039290 1.495850 0.227098
v 0.390000 1.389761 -0.469780
v -0.390000 1.389761 -0.469780
v 0.510000 1.704552 -0.656691
v -0.510000 1.704552 -0.656691
v -0.450000 0.724776 -0.405000
v 0.450000 0.724776 -0.405000
v -0.570000 0.000000 -0.405000
v 0.570000 0.000000 -0.405000
v 0.390000 1.449552 0.390000
v 0.390000 1.449552 -0.390000
v -0.390000 1.449552 0.390000
v -0.390000 1.449552 -0.390000
v -0.390000 1.704552 -0.390000
v 0.390000 1.704552 -0.390000
v 0.570000 1.865802 -0.060000
v 0.570000 1.663302 -0.060000
v 0.570000 1.865802 0.060000
v 0.570000 1.663302 0.060000
v 0.390000 1.629552 -0.060000
v 0.390000 1.704552 -0.060000
v 0.390000 1.899552 -0.060000
v 0.390000 1.629552 0.060000
v 0.390000 1.899552 0.060000
v -0.390000 1.899552 -0.060000
v -0.390000 1.899552 0.060000
v -0.570000 1.865802 -0.060000
v -0.570000 1.865802 0.060000
v -0.390000 1.629552 0.060000
v -0.570000 1.663302 0.060000
v -0.390000 1.629552 -0.060000
v -0.390000 1.704552 -0.060000
v -0.570000 1.663302 -0.060000
v -0.390000 1.629552 0.195000
v -0.390000 2.132052 0.195000
v -0.390000 2.132052 0.390000
v 0.390000 2.132052 0.195000
v 0.390000 1.629552 0.195000
v 0.390000 2.132052 0.390000
v -0.000000 2.034552 0.390000
v -0.277449 1.877936 0.390000
v -0.277449 1.697529 0.390000
v -0.097042 1.877936 0.390000
v 0.097042 1.877936 0.390000
v -0.097042 1.697529 0.390000
v 0.277449 1.877936 0.390000
v 0.277449 1.697529 0.390000
v 0.097042 1.697529 0.390000
v 0.134491 1.542155 0.390000
v -0.134491 1.542155 0.390000
v -0.134491 1.614978 0.390000
v 0.134491 1.614978 0.390000
v -0.030000 1.614978 0.390000
v 0.030000 1.614978 0.390000
v -0.390000 1.629552 0.060000
v -0.390000 1.899552 0.060000
v -0.390000 1.629552 0.195000
v -0.390000 2.132052 0.195000
v -0.390000 1.899552 -0.060000
v -0.390000 2.229552 -0.390000
v -0.390000 1.704552 -0.060000
v -0.390000 1.704552 -0.390000
v -0.390000 2.229552 0.390000
v -0.390000 2.132052 0.390000
v 0.390000 2.379552 -0.390000
v 0.390000 2.379552 0.390000
v 0.390000 1.704552 -0.390000
v 0.390000 1.899552 -0.060000
v 0.390000 1.704552 -0.060000
v 0.390000 2.132052 0.195000
v 0.390000 2.132052 0.390000
v 0.390000 1.899552 0.060000
v 0.390000 1.629552 0.060000
v 0.390000 1.629552 0.195000
v 0.000000 2.034552 0.390000
v -0.134492 1.542155 0.390000
v -0.134492 1.614978 0.390000
v -0.082246 1.542155 0.390000
v -0.030000 1.614978 0.390000
v 0.082246 1.542155 0.390000
v 0.030000 1.614978 0.390000
v 0.134492 1.542155 0.390000
v 0.134492 1.614978 0.390000
v 0.097042 1.697529 0.390000
v 0.097042 1.877936 0.390000
v 0.277449 1.697529 0.390000
v 0.277449 1.877936 0.390000
v -0.277449 1.697529 0.390000
v -0.277449 1.877936 0.390000
v -0.097042 1.697529 0.390000
v -0.097042 1.877936 0.390000
vn -1.0000 -0.0000 -0.0000
vn -0.0000 1.0000 -0.0000
vn -0.0000 0.7071 0.7071
vn 0.0001 0.7071 0.7071
vn -0.0000 -1.0000 -0.0000
vn 1.0000 -0.0000 -0.0000
vn -0.0000 0.0893 -0.9960
vn -0.0000 -0.0000 1.0000
vn -0.0000 0.1054 0.9944
vn -0.0000 -0.0300 0.9996
vn -0.0000 -0.1648 0.9863
vn -0.0000 0.0883 -0.9961
vn -0.0000 0.1920 -0.9814
vn -0.0000 -0.0164 -0.9999
vn -0.0000 -0.0000 -1.0000
vn -0.1263 -0.0000 0.9920
vn -0.9239 0.3827 -0.0000
vn -0.3827 0.9239 -0.0000
vn 0.1263 -0.0000 -0.9920
vn 0.9681 -0.0000 0.2506
vn 0.2506 -0.0000 -0.9681
vn -0.2506 -0.0000 0.9681
vn -0.4997 0.8565 -0.1293
vn -0.7678 -0.5344 0.3535
vn -0.7243 -0.0000 0.6895
vn -0.7666 -0.5391 0.3490
vn -0.4997 -0.8565 -0.1293
vn -0.2989 -0.0000 -0.9543
vn 0.3705 0.9239 0.0959
vn 0.8944 0.3827 0.2315
vn 0.1263 -0.0000 0.9920
vn 0.3827 0.9239 -0.0000
vn 0.9239 0.3827 -0.0000
vn 0.2506 -0.0000 0.9681
vn -0.2989 -0.0000 0.9543
vn 0.4997 -0.8565 -0.1293
vn -0.4997 0.8565 0.1293
vn -0.9681 -0.0000 0.2506
vn -0.7243 -0.0000 -0.6895
vn 0.4997 0.8565 -0.1293
vn -0.4997 -0.8565 0.1293
vn -0.1263 -0.0000 -0.9920
vn -0.2506 -0.0000 -0.9681
vn -0.8944 0.3827 0.2315
vn -0.3705 0.9239 0.0959
vn -0.3704 0.9239 0.0959
vn -0.0000 -0.9118 -0.4106
vn -0.0000 -0.5105 -0.8598
vn 0.0001 0.9118 0.4107
vn -0.0000 0.9432 -0.3322
vn -0.0000 0.9118 0.4107
vn -0.0000 0.1434 -0.9897
vn -0.0000 0.0664 -0.9978
vn 0.7695 0.6386 -0.0000
vn 0.7695 -0.6386 -0.0000
vn 0.1843 -0.9829 -0.0000
vn 0.1843 0.9829 -0.0000
vn -0.7695 0.6386 -0.0000
vn -0.1843 0.9829 -0.0000
vn -0.7695 -0.6386 -0.0000
vn -0.1843 -0.9829 -0.0000
vn -0.1888 0.9820 -0.0000
vt 0.093750 0.475000
vt 0.843750 0.225000
vt 0.843750 0.125000
vt 0.843750 0.061549
vt 0.843750 0.025000
vt 0.593750 0.071937
vt 0.593750 0.225000
vt 0.593750 0.117699
vt 0.343750 0.084795
vt 0.343750 0.025000
vt 0.343750 0.225000
vt 0.593750 0.195361
vt 0.593750 0.025000
vt 0.593750 0.085588
vt 0.343750 0.423407
vt 0.343750 0.328971
vt 0.343750 0.275000
vt 0.343750 0.375000
vt 0.343750 0.412363
vt 0.343750 0.435989
vt 0.343750 0.406319
vt 0.343750 0.401374
vt 0.343750 0.440934
vt 0.343750 0.475000
vt 0.343750 0.437767
vt 0.343750 0.460714
vt 0.343750 0.411334
vt 0.343750 0.388568
vt 0.343750 0.399238
vt 0.593750 0.097000
vt 0.593750 0.159000
vt 0.593750 0.185000
vt 0.593750 0.045000
vt 0.593750 0.133000
vt 0.531250 0.125000
vt 0.656250 0.375000
vt 0.906250 0.125000
s 1
usemtl colormap.001
f 3/1/1 2/1/1 1/1/1
f 2/1/1 3/1/1 4/1/1
f 4/1/1 3/1/1 5/1/1
f 4/1/2 7/1/3 6/1/2
f 7/1/4 4/1/2 5/1/3
f 3/1/5 9/1/5 8/1/5
f 9/1/5 3/1/5 1/1/5
f 10/1/6 8/1/6 9/1/6
f 8/1/6 10/1/6 6/1/6
f 8/1/6 6/1/6 7/1/6
f 2/1/7 9/1/7 1/1/7
f 9/1/7 2/1/7 10/1/7
f 7/1/4 3/1/8 8/1/8
f 3/1/8 7/1/4 5/1/3
f 13/2/9 12/3/10 11/3/10
f 12/3/10 13/2/9 14/2/9
f 16/2/2 13/2/2 15/2/2
f 13/2/2 16/2/2 14/2/2
f 19/4/1 18/3/1 17/5/1
f 14/2/1 18/3/1 19/4/1
f 14/2/1 19/4/1 12/3/1
f 18/3/1 14/2/1 16/2/1
f 13/2/6 20/3/6 15/2/6
f 21/4/6 20/3/6 13/2/6
f 21/4/6 13/2/6 11/3/6
f 20/3/6 21/4/6 22/5/6
f 11/3/10 19/4/11 21/4/11
f 19/4/11 11/3/10 12/3/10
f 18/3/12 22/5/13 17/5/13
f 22/5/13 18/3/12 20/3/12
f 16/2/14 20/3/12 18/3/12
f 20/3/12 16/2/14 15/2/14
f 25/1/6 24/1/6 23/1/6
f 24/1/6 25/1/6 26/1/6
f 24/1/6 26/1/6 27/1/6
f 30/1/1 29/1/1 28/1/1
f 29/1/1 30/1/1 31/1/1
f 31/1/1 30/1/1 32/1/1
f 27/1/4 30/1/8 24/1/8
f 30/1/8 27/1/4 32/1/3
f 31/1/2 27/1/3 26/1/2
f 27/1/4 31/1/2 32/1/3
f 29/1/7 23/1/7 28/1/7
f 23/1/7 29/1/7 25/1/7
f 30/1/5 23/1/5 24/1/5
f 23/1/5 30/1/5 28/1/5
f 35/2/9 34/3/10 33/3/10
f 34/3/10 35/2/9 36/2/9
f 38/2/2 35/2/2 37/2/2
f 35/2/2 38/2/2 36/2/2
f 41/4/1 40/3/1 39/5/1
f 36/2/1 40/3/1 41/4/1
f 36/2/1 41/4/1 34/3/1
f 40/3/1 36/2/1 38/2/1
f 35/2/6 42/3/6 37/2/6
f 43/4/6 42/3/6 35/2/6
f 43/4/6 35/2/6 33/3/6
f 42/3/6 43/4/6 44/5/6
f 33/3/10 41/4/11 43/4/11
f 41/4/11 33/3/10 34/3/10
f 40/3/12 44/5/13 39/5/13
f 44/5/13 40/3/12 42/3/12
f 38/2/14 42/3/12 40/3/12
f 42/3/12 38/2/14 37/2/14
f 47/6/1 46/7/1 45/6/1
f 46/7/1 47/6/1 48/7/1
f 46/7/2 50/7/2 49/7/2
f 50/7/2 46/7/2 51/7/2
f 51/7/2 46/7/2 52/7/2
f 52/7/2 46/7/2 48/7/2
f 50/7/6 53/6/6 49/7/6
f 53/6/6 50/7/6 54/6/6
f 46/7/15 53/6/15 45/6/15
f 53/6/15 46/7/15 49/7/15
f 50/7/8 55/8/8 54/6/8
f 55/8/8 50/7/8 51/7/8
f 56/8/8 48/7/8 47/6/8
f 48/7/8 56/8/8 52/7/8
f 58/5/1 45/2/1 57/5/1
f 45/2/1 58/5/1 47/2/1
f 45/2/15 59/5/15 57/5/15
f 59/5/15 45/2/15 53/2/15
f 54/2/8 58/5/8 60/5/8
f 58/5/8 54/2/8 47/2/8
f 54/2/6 59/5/6 53/2/6
f 59/5/6 54/2/6 60/5/6
f 58/5/5 59/5/5 60/5/5
f 59/5/5 58/5/5 57/5/5
f 63/9/8 62/10/8 61/10/8
f 62/10/8 63/9/8 64/9/8
f 64/9/8 63/9/8 65/11/8
f 64/9/8 65/11/8 66/11/8
f 69/12/16 68/13/8 67/13/16
f 68/13/8 69/12/16 70/14/8
f 70/14/8 69/12/16 71/12/8
f 73/14/17 71/12/18 72/12/18
f 71/12/18 73/14/17 70/14/17
f 76/12/2 75/12/2 74/12/2
f 75/12/2 76/12/2 69/12/2
f 69/12/2 76/12/2 72/12/18
f 69/12/2 72/12/18 71/12/18
f 78/13/15 76/12/19 77/13/19
f 76/12/19 78/13/15 73/14/15
f 76/12/19 73/14/15 72/12/15
f 68/13/1 73/14/17 78/13/1
f 73/14/17 68/13/1 70/14/17
f 80/13/5 77/13/5 79/13/5
f 77/13/5 80/13/5 67/13/5
f 77/13/5 67/13/5 78/13/5
f 78/13/5 67/13/5 68/13/5
f 75/12/20 79/13/20 74/12/20
f 79/13/20 75/12/20 80/13/20
f 77/13/19 74/12/21 79/13/21
f 74/12/21 77/13/19 76/12/19
f 75/12/22 67/13/16 80/13/22
f 67/13/16 75/12/22 69/12/16
f 74/12/23 82/7/23 81/7/23
f 82/7/23 74/12/23 75/12/23
f 83/13/24 75/12/25 80/13/26
f 75/12/25 83/13/25 82/7/25
f 83/13/27 79/13/27 84/13/27
f 79/13/27 83/13/24 80/13/26
f 79/13/28 81/7/28 84/13/28
f 81/7/28 79/13/28 74/12/28
f 87/15/29 86/16/30 85/16/30
f 86/16/30 87/15/29 88/15/29
f 86/16/30 89/17/20 85/16/30
f 89/17/20 86/16/30 90/17/20
f 91/17/21 85/16/21 89/17/21
f 85/16/21 91/17/21 92/15/21
f 85/16/21 92/15/21 87/15/21
f 92/15/2 88/15/29 87/15/29
f 88/15/29 92/15/2 93/15/2
f 90/17/5 91/17/5 89/17/5
f 91/17/5 90/17/5 94/17/5
f 86/16/22 94/17/22 90/17/22
f 94/17/22 86/16/22 93/15/22
f 93/15/22 86/16/22 88/15/22
f 97/13/8 96/12/31 95/13/31
f 96/12/31 97/13/8 98/14/8
f 96/12/31 98/14/8 99/12/8
f 101/12/32 98/14/33 100/14/33
f 98/14/33 101/12/32 99/12/32
f 95/13/31 103/12/34 102/13/34
f 103/12/34 95/13/31 96/12/31
f 95/13/5 104/13/5 97/13/5
f 104/13/5 95/13/5 105/13/5
f 105/13/5 95/13/5 102/13/5
f 105/13/5 102/13/5 106/13/5
f 107/13/35 106/13/35 108/7/35
f 109/12/35 108/7/35 106/13/35
f 110/12/2 99/12/32 101/12/32
f 99/12/32 110/12/2 96/12/2
f 96/12/2 110/12/2 103/12/2
f 103/12/2 110/12/2 109/12/2
f 100/14/33 97/13/6 104/13/6
f 97/13/6 100/14/33 98/14/33
f 111/13/36 106/13/36 102/13/36
f 107/13/37 111/13/37 106/13/37
f 102/13/38 109/12/38 106/13/38
f 109/12/38 102/13/38 103/12/38
f 102/13/39 111/13/39 103/12/39
f 112/7/39 103/12/39 111/13/39
f 109/12/40 112/7/40 103/12/40
f 108/7/41 109/12/41 112/7/41
f 110/12/42 104/13/15 105/13/42
f 104/13/15 110/12/42 100/14/15
f 100/14/15 110/12/42 101/12/15
f 109/12/43 105/13/42 106/13/43
f 105/13/42 109/12/43 110/12/42
f 115/16/43 114/17/43 113/17/43
f 114/17/43 115/16/43 116/15/43
f 116/15/43 115/16/43 117/15/43
f 120/17/34 119/16/34 118/17/34
f 119/16/34 120/17/34 121/15/34
f 119/16/34 121/15/34 122/15/34
f 118/17/5 114/17/5 120/17/5
f 114/17/5 118/17/5 113/17/5
f 113/17/38 119/16/44 115/16/44
f 119/16/44 113/17/38 118/17/38
f 117/15/45 119/16/44 122/15/45
f 119/16/44 117/15/45 115/16/44
f 116/15/2 122/15/46 121/15/2
f 122/15/45 116/15/2 117/15/45
f 123/10/47 124/10/47 125/11/48
f 126/11/48 125/11/48 124/10/47
f 124/10/49 49/10/50 123/10/51
f 49/10/50 124/10/51 46/10/50
f 46/10/52 128/10/53 127/10/53
f 128/10/53 46/10/52 49/10/52
f 127/10/53 130/10/15 129/10/15
f 130/10/15 127/10/53 128/10/53
f 133/18/5 132/18/5 131/18/5
f 132/18/5 133/18/5 134/18/5
f 135/19/15 132/18/15 134/18/15
f 132/18/15 135/19/15 136/19/15
f 139/20/54 138/21/55 137/20/54
f 138/21/55 139/20/54 140/21/55
f 142/19/15 138/21/15 141/22/15
f 138/21/15 142/19/15 137/20/15
f 137/20/15 142/19/15 143/23/15
f 144/22/56 138/21/55 140/21/55
f 138/21/55 144/22/56 141/22/56
f 143/23/57 139/20/54 137/20/54
f 139/20/54 143/23/57 145/23/57
f 140/21/8 145/23/8 144/22/8
f 145/23/8 140/21/8 139/20/8
f 148/20/58 147/23/59 146/23/59
f 147/23/59 148/20/58 149/20/58
f 147/23/8 151/21/8 150/22/8
f 151/21/8 147/23/8 149/20/8
f 154/21/15 153/19/15 152/22/15
f 153/19/15 154/21/15 148/20/15
f 153/19/15 148/20/15 146/23/15
f 151/21/60 148/20/58 154/21/60
f 148/20/58 151/21/60 149/20/58
f 151/21/60 152/22/61 150/22/61
f 152/22/61 151/21/60 154/21/60
f 133/18/1 135/19/1 134/18/1
f 135/19/1 133/18/1 152/22/1
f 153/19/1 135/19/1 152/22/1
f 152/22/1 133/18/1 150/22/1
f 150/22/1 133/18/1 155/22/1
f 155/22/1 133/18/1 156/24/1
f 156/24/1 133/18/1 157/24/1
f 160/24/6 159/22/6 158/24/6
f 131/18/6 159/22/6 160/24/6
f 131/18/6 144/22/6 159/22/6
f 131/18/6 141/22/6 144/22/6
f 132/18/6 141/22/6 131/18/6
f 132/18/6 142/19/6 141/22/6
f 142/19/6 132/18/6 136/19/6
f 162/25/8 160/24/8 161/26/8
f 157/24/8 162/25/8 161/26/8
f 157/24/8 163/27/8 162/25/8
f 164/25/8 160/24/8 162/25/8
f 133/18/8 163/27/8 157/24/8
f 165/25/8 160/24/8 164/25/8
f 166/27/8 165/25/8 164/25/8
f 167/25/8 160/24/8 165/25/8
f 168/27/8 160/24/8 167/25/8
f 168/27/8 131/18/8 160/24/8
f 166/27/8 169/27/8 165/25/8
s 0
f 163/27/8 169/27/8 166/27/8
f 163/27/8 168/27/8 169/27/8
s 1
f 131/18/8 170/28/8 133/18/8
f 170/28/8 131/18/8 168/27/8
f 171/28/8 133/18/8 170/28/8
f 163/27/8 133/18/8 171/28/8
f 163/27/8 171/28/8 172/29/8
f 163/27/8 172/29/8 168/27/8
f 170/28/8 168/27/8 173/29/8
f 174/29/8 168/27/8 172/29/8
f 173/29/8 168/27/8 175/29/8
f 175/29/8 168/27/8 174/29/8
f 178/13/1 177/30/1 176/13/1
f 179/31/1 177/30/1 178/13/1
f 179/31/1 180/30/1 177/30/1
f 181/32/1 180/30/1 179/31/1
f 181/32/1 182/33/1 180/30/1
f 182/33/1 181/32/1 183/33/1
f 181/32/1 179/31/1 184/32/1
f 184/32/1 179/31/1 185/31/1
f 181/32/62 187/7/62 186/7/62
f 187/7/62 181/32/62 184/32/62
f 181/32/15 188/33/15 183/33/15
f 188/33/15 181/32/15 186/7/15
f 187/7/6 188/33/6 186/7/6
f 188/33/6 187/7/6 189/30/6
f 190/33/6 188/33/6 189/30/6
f 189/30/6 187/7/6 191/31/6
f 191/31/6 187/7/6 192/31/6
f 189/30/6 191/31/6 193/30/6
f 193/30/6 191/31/6 194/13/6
f 195/13/6 194/13/6 191/31/6
f 192/31/8 185/31/8 196/34/8
f 185/31/8 192/31/8 187/7/8
f 185/31/8 187/7/8 184/32/8
f 199/35/8 198/35/8 197/35/8
f 201/35/8 200/35/8 199/35/8
f 200/35/8 201/35/8 202/35/8
f 204/35/8 201/35/8 203/35/8
f 207/36/8 206/36/8 205/36/8
f 206/36/8 207/36/8 208/36/8
f 211/36/8 210/36/8 209/36/8
f 210/36/8 211/36/8 212/36/8
f 200/37/8 198/37/8 199/37/8
f 204/37/8 202/37/8 201/37/8
